<svg xmlns="http://www.w3.org/2000/svg" width="40" height="40" fill="none"><g clip-path="url(#a)"><path fill="#fff" d="M12.346 18.92a1.82 1.82 0 0 1-.04-.354c.002-.196.04-.39.109-.573.217-.573.727-.86 1.145-.636l.057.029.768 3.11c.057.223.114.447.177.67l-.126.034-.572-.046a1.969 1.969 0 0 1-1.427-1.632l-.091-.601ZM22.931 14.442c.98 1.34 2.12 2.474 3.3 2.755l-.442 2.577c-.057.36-.131.721-.217 1.076-.052.2-.103.396-.166.573a9.004 9.004 0 0 1-.344.928c-.245.558-.54 1.093-.882 1.598-.35.512-.757.983-1.214 1.402a4.844 4.844 0 0 1-.9.66 3.9 3.9 0 0 1-1.993.572h-.063a4.496 4.496 0 0 1-3.207-1.523 8.177 8.177 0 0 1-.893-1.1 9.738 9.738 0 0 1-1.318-2.812c-.063-.223-.12-.446-.177-.67l-.768-3.11-.051-.211v-.12c1.145-.27 2.245-1.306 3.219-2.543a28.879 28.879 0 0 0 3.201-5.423 28.87 28.87 0 0 0 2.915 5.371Zm.504 3.333a.418.418 0 1 0-.824 0 .424.424 0 1 0 .824 0Zm-6.22 0a.417.417 0 0 0-.588-.448.418.418 0 0 0-.236.448.422.422 0 0 0 .597.48.422.422 0 0 0 .227-.48Z"/><path fill="#fff" d="M25.572 20.851c.086-.355.16-.716.218-1.077l.44-2.577.282-.19c.446-.223.956.052 1.145.637.07.183.106.377.109.572a1.817 1.817 0 0 1-.04.35l-.132.573a1.98 1.98 0 0 1-1.426 1.632l-.596.08Z"/><path fill="#0A2C2F" d="M26.231 17.197c-1.18-.28-2.291-1.415-3.299-2.755a28.866 28.866 0 0 1-2.944-5.365 28.88 28.88 0 0 1-3.201 5.423c-.974 1.236-2.091 2.29-3.22 2.542v.12l.052.212-.057-.028c-.447-.224-.957.051-1.146.635-.069.183-.106.377-.108.573.001.12.015.238.04.355l.131.573a1.97 1.97 0 0 0 1.427 1.632l.572.046.126-.035a9.735 9.735 0 0 0 1.318 2.812c.265.392.564.76.893 1.1.155 3.87-.693 5.726-1.449 6.556-.278.355-.66.614-1.094.74-2.25.898-3.15-.654-3.15-.654a2.394 2.394 0 0 1-1.472.16 1.323 1.323 0 0 1-.813-.572c.819-.9 1.632-3.951.384-8.086-1.249-4.134.899-5.32 1.752-8.326.854-3.007 1.398-5.154 3.952-7.302A4.393 4.393 0 0 1 20 6.981s1.941-1.57 4.495.572c2.555 2.142 3.105 4.3 3.953 7.302.847 3 3.006 4.186 1.752 8.326-1.254 4.14-.435 7.187.384 8.086-.186.29-.478.495-.814.573a2.395 2.395 0 0 1-1.471-.16s-.9 1.551-3.15.652a1.564 1.564 0 0 1-.911-.607c-.659-.762-1.403-2.491-1.26-6.385.457-.42.864-.89 1.214-1.403.342-.505.637-1.04.882-1.598a8.98 8.98 0 0 0 .344-.927c.063-.195.114-.39.166-.573l.624-.046a1.982 1.982 0 0 0 1.426-1.632l.132-.573c.025-.114.038-.232.04-.349a1.679 1.679 0 0 0-.109-.573c-.217-.572-.727-.859-1.145-.635l-.321.166Z"/><path fill="#FF9587" d="M9.62 31.868s-2.817.808-3.15 2.48A19.71 19.71 0 0 1 19.981.284a19.716 19.716 0 0 1 18.325 12.444 19.708 19.708 0 0 1-4.814 21.62c-.996-2.342-3.751-2.48-3.751-2.48.335-.077.627-.283.813-.572-.819-.9-1.632-3.952-.384-8.086 1.249-4.135-.899-5.32-1.752-8.327-.854-3.006-1.398-5.154-3.952-7.301-2.555-2.147-4.496-.573-4.496-.573a4.393 4.393 0 0 0-5.075.573c-2.554 2.147-3.104 4.3-3.951 7.301-.848 3.001-3.007 4.187-1.753 8.327 1.254 4.14.435 7.187-.384 8.086.186.29.478.495.813.572Z"/><path fill="#00BDD0" d="M29.758 31.868s2.755.138 3.751 2.48a19.692 19.692 0 0 1-27.022 0c.332-1.672 3.15-2.48 3.15-2.48.496.104 1.01.048 1.472-.16 0 0 .9 1.552 3.15.653a2.148 2.148 0 0 0 1.094-.74 10.385 10.385 0 0 0 8.872.133c.22.305.544.52.91.607 2.252.899 3.15-.653 3.15-.653.462.208.977.264 1.473.16Z"/><path fill="#0A2C2F" d="M23.023 17.271a.464.464 0 0 1 .413.504.424.424 0 1 1-.825 0 .464.464 0 0 1 .412-.504Z"/><path fill="#fff" d="M22.966 25.369c-.143 3.894.573 5.623 1.26 6.385a10.384 10.384 0 0 1-8.871-.132c.755-.859 1.603-2.686 1.448-6.557a4.497 4.497 0 0 0 3.208 1.523h.063a3.902 3.902 0 0 0 1.993-.572c.323-.18.625-.398.9-.647Z"/><path fill="#0A2C2F" d="M16.804 17.271a.464.464 0 0 1 .412.504.424.424 0 1 1-.825 0 .464.464 0 0 1 .413-.504Z"/><path fill="#0A2C2F" d="M20 40A20.013 20.013 0 0 1 .336 23.755a20.006 20.006 0 0 1 12.27-22.36 20.014 20.014 0 0 1 24.269 7.857 20.006 20.006 0 0 1-3.168 25.308A19.904 19.904 0 0 1 20.001 40ZM20 .573A19.474 19.474 0 0 0 .574 19.997a19.221 19.221 0 0 0 6.111 14.145A19.427 19.427 0 0 0 36.07 9.08 19.428 19.428 0 0 0 19.995.573H20Z"/><path fill="#0A2C2F" d="M20.074 26.875h-.063a4.72 4.72 0 0 1-3.436-1.61 8.773 8.773 0 0 1-.922-1.145 9.992 9.992 0 0 1-1.358-2.898c-.063-.223-.12-.452-.177-.675l-.848-3.436a.294.294 0 1 1 .573-.132l.848 3.436c.057.223.108.441.171.664.281.97.712 1.89 1.278 2.726.256.378.545.733.864 1.06a4.158 4.158 0 0 0 3.002 1.437h.063a3.58 3.58 0 0 0 1.85-.521c.304-.174.588-.381.847-.619a7.827 7.827 0 0 0 1.146-1.357c.331-.49.619-1.01.859-1.552.12-.292.235-.572.326-.893.063-.195.115-.384.166-.573.086-.366.16-.715.212-1.048l.441-2.582a.29.29 0 0 1 .573.097l-.435 2.577c-.058.344-.132.71-.224 1.094-.057.212-.108.412-.171.613-.102.322-.22.64-.356.95a10.544 10.544 0 0 1-.905 1.65 8.825 8.825 0 0 1-1.26 1.454c-.29.266-.609.498-.95.693a4.181 4.181 0 0 1-2.114.59Z"/><path fill="#0A2C2F" d="M19.99 23.857a1.298 1.298 0 0 1-.418-.063l-1.512-.573a.287.287 0 1 1 .195-.538l1.5.544a.767.767 0 0 0 .481 0l1.49-.544a.286.286 0 0 1 .366.172.283.283 0 0 1-.075.31.282.282 0 0 1-.097.056l-1.506.573c-.137.043-.28.064-.424.063ZM19.932 21.756a.28.28 0 0 1-.247-.138l-.206-.349a1.987 1.987 0 0 1-.011-1.959 1.41 1.41 0 0 0 .177-.687v-1.025a.292.292 0 0 1 .287-.287.286.286 0 0 1 .286.287v1.025c.004.34-.085.675-.258.968-.111.212-.17.448-.171.687-.003.246.062.488.188.699l.201.35a.287.287 0 0 1-.097.389.274.274 0 0 1-.15.04ZM25.572 21.137a.286.286 0 0 1-.271-.374.287.287 0 0 1 .254-.193l.624-.051a1.718 1.718 0 0 0 1.146-1.409l.131-.573c.023-.095.035-.194.035-.292a1.32 1.32 0 0 0-.092-.481.836.836 0 0 0-.424-.498.413.413 0 0 0-.35 0l-.251.172a.287.287 0 0 1-.395-.08.28.28 0 0 1 .074-.396l.28-.189a1.02 1.02 0 0 1 .854-.057 1.407 1.407 0 0 1 .75.83 1.915 1.915 0 0 1 .08 1.089l-.131.601a2.257 2.257 0 0 1-1.655 1.833l-.653.046-.006.022Z"/><path fill="#0A2C2F" d="M12.956 32.928a2.51 2.51 0 0 1-1.947-.877c-.46.168-.96.202-1.438.098a1.615 1.615 0 0 1-.99-.699.286.286 0 0 1 .033-.332c.659-.722 1.604-3.58.321-7.811-.893-2.96-.103-4.49.739-6.11.42-.755.76-1.551 1.014-2.377l.074-.258c.825-2.926 1.42-5.045 3.97-7.186a4.72 4.72 0 0 1 5.412-.607.286.286 0 1 1-.304.486 4.078 4.078 0 0 0-4.742.573c-2.411 2.027-2.99 4.072-3.786 6.906l-.074.252a13.138 13.138 0 0 1-1.054 2.486c-.82 1.58-1.53 2.943-.699 5.68 1.226 4.049.515 7.038-.292 8.166.145.14.325.239.521.287.437.083.888.03 1.294-.15a.28.28 0 0 1 .35.121c.034.057.819 1.323 2.8.533h.058c.366-.12.69-.344.928-.647.71-.808 1.529-2.566 1.374-6.357a.286.286 0 1 1 .573 0c.16 3.98-.739 5.87-1.518 6.757a2.428 2.428 0 0 1-1.226.825 3.74 3.74 0 0 1-1.391.24Z"/><path fill="#0A2C2F" d="M26.451 32.928a3.792 3.792 0 0 1-1.386-.287 1.925 1.925 0 0 1-1.054-.698c-.687-.796-1.472-2.583-1.329-6.58a.286.286 0 1 1 .573 0c-.137 3.814.573 5.469 1.191 6.19.18.245.436.424.728.51a.177.177 0 0 1 .074 0c1.976.79 2.76-.475 2.795-.533a.287.287 0 0 1 .35-.12c.408.18.861.232 1.3.149a1.1 1.1 0 0 0 .515-.286c-.802-1.146-1.512-4.118-.292-8.166.83-2.738.126-4.1-.693-5.681a13.13 13.13 0 0 1-1.06-2.485l-.068-.253c-.802-2.834-1.375-4.879-3.792-6.906s-4.06-.641-4.135-.572a.287.287 0 0 1-.4-.04.292.292 0 0 1 .045-.407s2.154-1.69 4.857.573c2.548 2.141 3.15 4.26 3.974 7.187l.07.257c.258.825.6 1.621 1.019 2.377.836 1.62 1.632 3.15.733 6.11-1.277 4.232-.332 7.09.32 7.81a.287.287 0 0 1 .04.333 1.638 1.638 0 0 1-.99.699 2.6 2.6 0 0 1-1.443-.098 2.51 2.51 0 0 1-1.942.917Z"/><path fill="#0A2C2F" d="M26.232 17.483h-.063c-1.106-.263-2.291-1.225-3.466-2.863a28.048 28.048 0 0 1-2.72-4.833 27.527 27.527 0 0 1-2.973 4.896c-1.18 1.506-2.29 2.394-3.373 2.646a.294.294 0 0 1-.132-.573c.928-.223 1.96-1.042 3.059-2.445a28.51 28.51 0 0 0 3.161-5.36.332.332 0 0 1 .27-.172.298.298 0 0 1 .263.183 28.684 28.684 0 0 0 2.91 5.303c1.11 1.523 2.164 2.417 3.132 2.646a.287.287 0 0 1 .212.343.287.287 0 0 1-.28.23Z"/><path fill="#0A2C2F" d="M16.787 14.769a.293.293 0 0 1-.275-.2.288.288 0 0 1 .195-.361 2.41 2.41 0 0 1 1.094-.046.286.286 0 0 1 .11.517.292.292 0 0 1-.213.05 1.758 1.758 0 0 0-.825 0 .224.224 0 0 1-.086.04ZM22.93 14.729h-.073a1.421 1.421 0 0 0-.825 0 .286.286 0 0 1-.206-.533c.385-.122.8-.122 1.185 0a.287.287 0 0 1 .195.355.281.281 0 0 1-.275.178ZM20 32.974a11.306 11.306 0 0 1-4.765-1.088.288.288 0 0 1 .247-.522 10.156 10.156 0 0 0 8.625.132.287.287 0 0 1 .384.143.292.292 0 0 1-.143.378 10.36 10.36 0 0 1-4.347.957ZM6.489 34.635H6.43a.28.28 0 0 1-.223-.333c.36-1.827 3.23-2.669 3.35-2.703a.286.286 0 0 1 .355.2.275.275 0 0 1-.194.35c-.029 0-2.652.785-2.95 2.262a.28.28 0 0 1-.28.224ZM33.51 34.635a.286.286 0 0 1-.263-.172c-.91-2.148-3.476-2.291-3.5-2.291a.285.285 0 0 1-.274-.298.297.297 0 0 1 .303-.275c.12 0 2.944.178 4.01 2.658a.281.281 0 0 1-.15.372.275.275 0 0 1-.125.006ZM14.467 21.475l-.572-.046a2.292 2.292 0 0 1-1.684-1.855L12.079 19a2.378 2.378 0 0 1-.046-.418c.003-.233.045-.463.126-.682a1.397 1.397 0 0 1 .756-.83.997.997 0 0 1 .82.04l.056.029a.286.286 0 0 1-.257.51l-.058-.03a.43.43 0 0 0-.355 0 .836.836 0 0 0-.423.499 1.43 1.43 0 0 0-.092.481c.003.102.014.204.034.304l.132.572a1.718 1.718 0 0 0 1.197 1.415l.533.04a.292.292 0 0 1 .263.31.28.28 0 0 1-.298.234Z"/></g><defs><clipPath id="a"><path fill="#fff" d="M0 0h40v40H0z"/></clipPath></defs></svg>