<svg xmlns="http://www.w3.org/2000/svg" width="40" height="40" fill="none"><g clip-path="url(#a)"><path fill="#00BDD0" d="M20 .286a19.714 19.714 0 0 1 13.803 33.792c-.394-.273-.82-.5-1.266-.676l-4.009-1.535s.647-2.405-1.208-3.058c-.934-.32-2.183.573-3.202 1.546v-4.782l-.04-.035a7.41 7.41 0 0 0 .378-.515c.359-.544.667-1.119.922-1.718.138-.328.259-.662.36-1.003.098-.32.178-.64.247-.967h.092l.487-.046a2.011 2.011 0 0 0 1.489-1.633l.137-.572c.028-.119.041-.24.04-.361a1.506 1.506 0 0 0-.108-.573.925.925 0 0 0-.844-.696.922.922 0 0 0-.382.06l-.28.16.09-.538v-.246a5.841 5.841 0 0 0 2.653-.31.482.482 0 0 0 .32-.457c0-.1-.03-.198-.086-.281a7.915 7.915 0 0 1-1.386-3.643c-.475-3.946-4.736-8.562-11.11-5.315 0 0-2.39-1.094-3.563 1.913-1.174 3.007-1.759 5.367-3.712 8.643 0 0 2.022.722 3.357-.36l.046.056.131.539a1.34 1.34 0 0 0-1.254.756c-.103.302-.103.63 0 .933l.189.573a2.102 2.102 0 0 0 1.718 1.53l.28.028c.143.618.335 1.223.574 1.81.254.6.563 1.174.922 1.718.126.19.263.382.412.573v5.006c-1.008-.951-2.24-1.828-3.167-1.512-1.856.647-1.209 3.052-1.209 3.052l-4.009 1.54c-.452.175-.88.404-1.277.682A19.72 19.72 0 0 1 20.023.27L20 .286Z"/><path fill="#72B97D" d="M32.537 33.396c.446.176.87.403 1.265.676a19.593 19.593 0 0 1-11.454 5.498V33.7a3.814 3.814 0 0 1 1.002-2.572c.229-.246.487-.52.756-.773 1.02-.968 2.29-1.867 3.202-1.546 1.855.653 1.208 3.058 1.208 3.058l4.02 1.53Z"/><path fill="#0A2C2F" d="M29.589 15.83a.504.504 0 0 1-.001.562.481.481 0 0 1-.234.177 5.843 5.843 0 0 1-2.652.31 5.517 5.517 0 0 1-2.594-1.008 16.276 16.276 0 0 1-2.52-2.291v3.568c-3.649-1.369-5.396-5.355-5.396-5.355s-1.1 2.382-2.428 4.582c-.15.262-.344.496-.573.693-1.334 1.082-3.356.36-3.356.36 1.953-3.276 2.537-5.63 3.711-8.642 1.174-3.013 3.563-1.913 3.563-1.913 6.374-3.247 10.635 1.369 11.11 5.315a7.916 7.916 0 0 0 1.37 3.643Z"/><path fill="#fff" d="M28.213 18.717c0 .122-.013.243-.04.36l-.138.574a2.01 2.01 0 0 1-1.489 1.632l-.487.046h-.091c.057-.27.108-.544.154-.82l.47-2.863.28-.16a.923.923 0 0 1 1.226.635c.079.19.117.392.115.596Z"/><path fill="#fff" d="M16.198 25.584a8.936 8.936 0 0 1-.412-.572 10.774 10.774 0 0 1-.922-1.719 11.874 11.874 0 0 1-.573-1.81c0-.074-.04-.143-.057-.217l-.865-3.608-.132-.539-.046-.057c.23-.197.423-.431.573-.693 1.329-2.222 2.428-4.582 2.428-4.582s1.719 4.01 5.396 5.355v-3.568c.757.85 1.602 1.617 2.52 2.29.773.55 1.674.892 2.617.992v.246l-.091.538-.47 2.864a13.94 13.94 0 0 1-.155.82c-.057.245-.149.646-.246.967-.102.34-.223.675-.36 1.002-.256.6-.564 1.175-.923 1.719-.114.171-.24.343-.378.515-.9 1.18-2.21 2.29-3.918 2.29h-.063c-1.678 0-2.978-1.093-3.883-2.25l-.04.017Zm7.343-7.314a.424.424 0 1 0-.83 0 .424.424 0 1 0 .83 0Zm-6.226 0a.419.419 0 1 0-.825 0 .422.422 0 0 0 .597.48.423.423 0 0 0 .228-.48Z"/><path fill="#fff" d="M24.101 30.35c-.27.252-.527.526-.756.773-.643.702-1 1.619-1.002 2.571v.287c-2.578 1.145-4.353 0-4.353 0a3.826 3.826 0 0 0-1.002-2.566 14.726 14.726 0 0 0-.79-.802V25.59c.904 1.145 2.204 2.25 3.882 2.25h.063c1.719 0 3.019-1.145 3.918-2.29l.04.034v4.765Z"/><path fill="#0A2C2F" d="M23.128 17.766a.464.464 0 0 1 .412.504.424.424 0 1 1-.83 0 .47.47 0 0 1 .418-.504Z"/><path fill="#325151" d="M22.342 33.986v5.585a19.531 19.531 0 0 1-4.353.04v-5.625s1.776 1.117 4.353 0Z"/><path fill="#72B97D" d="M17.99 33.998v5.613a19.656 19.656 0 0 1-11.455-5.23 5.926 5.926 0 0 1 1.277-.681l4.01-1.54s-.648-2.406 1.208-3.053c.928-.315 2.16.572 3.167 1.512.287.269.573.544.79.802a3.826 3.826 0 0 1 1.003 2.565v.012Z"/><path fill="#0A2C2F" d="M16.901 17.766a.463.463 0 0 1 .413.504.424.424 0 1 1-.825 0 .463.463 0 0 1 .412-.504Z"/><path fill="#fff" d="M14.226 21.272c0 .074.034.143.057.217l-.28-.028a2.103 2.103 0 0 1-1.719-1.53l-.189-.572a1.454 1.454 0 0 1 0-.934 1.34 1.34 0 0 1 1.255-.756l.876 3.603Z"/><path fill="#0A2C2F" d="M20 40c-.681 0-1.362-.035-2.04-.103a19.81 19.81 0 0 1-11.643-5.304 20.011 20.011 0 1 1 16.037 5.264A18.73 18.73 0 0 1 20 40ZM6.707 34.175a19.306 19.306 0 0 0 11.311 5.155 19.415 19.415 0 1 0-11.312-5.155Z"/><path fill="#0A2C2F" d="M16.198 25.87a.276.276 0 0 1-.223-.108 15.818 15.818 0 0 1-.43-.573 11.24 11.24 0 0 1-.945-1.764 11.835 11.835 0 0 1-.573-1.856c0-.063-.04-.137-.063-.223l-.99-4.14a.275.275 0 0 1 .206-.345.285.285 0 0 1 .349.207l.996 4.152c.014.066.031.13.052.195.145.61.336 1.207.573 1.787.25.582.55 1.142.899 1.672.12.178.252.36.395.573a.28.28 0 0 1-.046.4.258.258 0 0 1-.2.024Z"/><path fill="#0A2C2F" d="M20.142 28.127h-.063c-1.477 0-2.898-.813-4.106-2.36a.286.286 0 0 1 .446-.355c1.146 1.42 2.343 2.142 3.66 2.142h.063c1.34 0 2.583-.738 3.689-2.193.137-.172.257-.338.372-.504a10.305 10.305 0 0 0 1.243-2.64c.091-.304.172-.608.24-.945.069-.338.11-.539.155-.808l.573-3.385a.286.286 0 0 1 .332-.235.28.28 0 0 1 .229.332l-.573 3.38c-.046.28-.097.572-.154.836-.058.263-.155.676-.252.99a8.9 8.9 0 0 1-.373 1.031 11.231 11.231 0 0 1-.945 1.764c-.122.18-.254.358-.395.533-1.203 1.58-2.635 2.417-4.14 2.417Z"/><path fill="#0A2C2F" d="M16.198 30.9a.287.287 0 0 1-.287-.287V25.59a.298.298 0 0 1 .287-.298.274.274 0 0 1 .286.275v5.034a.287.287 0 0 1-.287.298ZM24.1 30.636a.286.286 0 0 1-.287-.287v-4.782a.286.286 0 1 1 .573 0v4.782a.287.287 0 0 1-.286.287ZM20.115 24.782c-.165 0-.328-.023-.487-.068l-1.752-.476a.297.297 0 0 1 .149-.572l1.758.475c.21.057.431.057.641 0l1.879-.481a.289.289 0 0 1 .3.105c.023.03.04.064.05.101a.298.298 0 0 1-.207.35l-1.873.48a1.828 1.828 0 0 1-.458.086ZM19.959 22.583a.287.287 0 0 1-.247-.137l-.235-.384a2.097 2.097 0 0 1-.297-1.071 2.027 2.027 0 0 1 .286-1.048c.135-.227.206-.487.206-.75v-1.146a.286.286 0 1 1 .573 0v1.145c.002.37-.097.732-.286 1.049a1.478 1.478 0 0 0 0 1.523l.235.384a.288.288 0 0 1-.098.395.276.276 0 0 1-.137.04ZM14.278 21.776l-.28-.03a2.36 2.36 0 0 1-1.96-1.717l-.188-.573a1.672 1.672 0 0 1 .017-1.105 1.615 1.615 0 0 1 1.54-.945.287.287 0 1 1-.034.572 1.065 1.065 0 0 0-.968.573c-.046.125-.07.257-.069.39 0 .12.019.24.058.355l.189.572a1.805 1.805 0 0 0 1.472 1.329l.28.029a.286.286 0 0 1 0 .572l-.057-.022ZM26.06 21.632a.287.287 0 0 1 0-.573l.487-.045a1.718 1.718 0 0 0 1.237-1.41l.137-.572c.024-.098.035-.198.035-.298a1.174 1.174 0 0 0-.086-.464.844.844 0 0 0-.447-.504.487.487 0 0 0-.39 0l-.263.155a.286.286 0 0 1-.39-.109.28.28 0 0 1 .104-.39l.28-.16a1.053 1.053 0 0 1 .87-.04 1.427 1.427 0 0 1 .768.82c.085.216.128.448.126.68 0 .145-.015.29-.045.43l-.138.573a2.291 2.291 0 0 1-1.718 1.844l-.504.052-.063.011Z"/><path fill="#0A2C2F" d="M11.306 17.955a5.156 5.156 0 0 1-1.575-.257.287.287 0 0 1-.172-.172.292.292 0 0 1 0-.24 33.25 33.25 0 0 0 2.864-6.404c.258-.71.515-1.432.819-2.2a3.437 3.437 0 0 1 1.827-2.096 2.864 2.864 0 0 1 1.987 0c3.385-1.683 5.905-1.076 7.446-.263a7.886 7.886 0 0 1 3.98 5.86 7.623 7.623 0 0 0 1.335 3.51c.089.132.137.287.137.447a.762.762 0 0 1-.51.727 6.14 6.14 0 0 1-2.783.326 5.888 5.888 0 0 1-2.726-1.059 16.044 16.044 0 0 1-2.068-1.816v2.835a.281.281 0 0 1-.12.235.275.275 0 0 1-.264.035c-2.95-1.106-4.667-3.81-5.292-4.972-.4.836-1.242 2.515-2.187 4.101-.172.291-.393.551-.653.768a3.23 3.23 0 0 1-2.045.635Zm-1.042-.704c.572.143 1.855.315 2.743-.407a2.29 2.29 0 0 0 .521-.613c1.306-2.188 2.406-4.582 2.417-4.582a.262.262 0 0 1 .264-.166.286.286 0 0 1 .257.172c0 .04 1.615 3.608 4.846 5.046v-3.144a.293.293 0 0 1 .189-.27.287.287 0 0 1 .315.086c.744.845 1.57 1.612 2.468 2.291.728.52 1.575.85 2.463.957a5.568 5.568 0 0 0 2.52-.298.195.195 0 0 0 .132-.189.223.223 0 0 0-.035-.12 8.281 8.281 0 0 1-1.437-3.769 7.268 7.268 0 0 0-3.677-5.418c-1.42-.762-3.792-1.317-7.016.326a.298.298 0 0 1-.252 0 2.291 2.291 0 0 0-1.673 0 2.891 2.891 0 0 0-1.5 1.77 53.757 53.757 0 0 0-.813 2.188 33.95 33.95 0 0 1-2.732 6.14Z"/><path fill="#0A2C2F" d="M15.545 16.042a.286.286 0 0 1-.195-.492 1.998 1.998 0 0 1 2.211-.247.286.286 0 0 1 .132.384.282.282 0 0 1-.378.132 1.438 1.438 0 0 0-1.575.149.287.287 0 0 1-.195.074ZM17.99 39.903a.286.286 0 0 1-.286-.287v-5.618c0-.883-.332-1.733-.928-2.383-.24-.263-.51-.538-.773-.785l-.035-.04c-1.22-1.145-2.205-1.632-2.863-1.414-1.575.572-1.048 2.617-1.026 2.703a.286.286 0 0 1-.171.344l-4.01 1.54a5.48 5.48 0 0 0-1.22.648.287.287 0 0 1-.4-.07.292.292 0 0 1 .068-.4c.417-.29.867-.529 1.34-.71l3.798-1.455c-.183-.98-.08-2.612 1.449-3.144.87-.298 2.033.234 3.436 1.575.015.008.026.02.035.034.269.252.532.521.773.785a4.112 4.112 0 0 1 1.077 2.76v5.625a.287.287 0 0 1-.264.292ZM22.343 39.857a.286.286 0 0 1-.286-.286V33.7a4.1 4.1 0 0 1 1.076-2.766c.23-.241.476-.51.74-.756l.034-.035c1.437-1.369 2.617-1.907 3.488-1.61 1.529.54 1.632 2.171 1.449 3.15l3.797 1.444c.468.187.914.425 1.329.71a.292.292 0 0 1 .068.401.287.287 0 0 1-.395.069 6.113 6.113 0 0 0-1.208-.642l-4.01-1.534a.286.286 0 0 1-.171-.344c0-.086.572-2.16-1.026-2.715-.641-.217-1.638.287-2.863 1.455l-.035.04c-.263.246-.515.515-.738.756a3.522 3.522 0 0 0-.928 2.377v5.87a.286.286 0 0 1-.321.287Z"/><path fill="#0A2C2F" d="M20.064 34.77a4.403 4.403 0 0 1-2.228-.543.286.286 0 0 1 .31-.481c.062.04 1.717 1.02 4.083 0a.288.288 0 0 1 .229.527 6.02 6.02 0 0 1-2.394.498Z"/></g><defs><clipPath id="a"><path fill="#fff" d="M0 0h40v40H0z"/></clipPath></defs></svg>